#!OML:ASF X:\für Bonn\!DataBase\2005_08_11_Bastian_Final\c3d\Bastian.ASF
:FULLY-SPECIFIED
:DEGREES
168
root 19.2938 15.8029 -3.02932 1092.08 -59.9854 20.6906
lowerback 76.5711 -1.12572 9.65092
upperback 12.2455 4.15723 2.10937
thorax -6.37174 1.20328 -2.90364
lowerneck -0.57333 -5.30121 8.2435
upperneck -25.5975 -8.20797 -2.90901
head -8.31313 -4.88294 -1.7191
rclavicle 2.8625e-014 3.49861e-014
rhumerus 49.6368 2.34036 -25.8882
rradius 28.9731
rwrist -4.76104
rhand -41.1697 -4.00081
rfingers 7.12502
rthumb -14.0952 -33.5028
lclavicle 2.8625e-014 3.49861e-014
lhumerus -12.1021 -34.4711 -270.666
lradius 47.4492
lwrist -329.013
lhand -13.1708 -16.7016
lfingers 7.12502
lthumb 12.9285 12.8778
rfemur -77.4253 -22.2177 23.9518
rtibia 71.0777
rfoot -18.6592 -2.96203
rtoes 5.55456
lfemur -71.3494 -7.52015 -31.3918
ltibia 51.4055
lfoot -0.0900788 -16.1626
ltoes -13.654
169
root 19.2694 15.8042 -3.02826 1092.22 -59.7295 20.6461
lowerback 76.4324 -1.00155 9.59089
upperback 12.3764 4.23693 2.23589
thorax -6.24716 1.23407 -2.7719
lowerneck -0.87457 -5.36917 7.8062
upperneck -25.591 -8.30292 -2.62117
head -8.23034 -4.92399 -1.55369
rclavicle 9.54166e-015 -5.24792e-014
rhumerus 50.771 2.78123 -24.8561
rradius 28.9876
rwrist -5.61491
rhand -40.437 -4.70911
rfingers 7.12502
rthumb -13.389 -34.2589
lclavicle 9.54166e-015 -5.24792e-014
lhumerus -11.8905 -34.4648 -270.561
lradius 47.496
lwrist -329.079
lhand -13.1424 -16.7249
lfingers 7.12502
lthumb 12.9559 12.8529
rfemur -77.4302 -22.3961 24.0132
rtibia 71.1313
rfoot -18.8242 -3.02593
rtoes 5.501
lfemur -71.3403 -7.59076 -31.4411
ltibia 51.4212
lfoot -0.0970822 -16.3847
ltoes -13.4213
170
root 19.245 15.8058 -3.02734 1092.29 -59.481 20.6553
lowerback 76.2984 -0.876716 9.5038
upperback 12.5247 4.29414 2.35391
thorax -6.10508 1.25702 -2.63047
lowerneck -1.16928 -5.44408 7.36466
upperneck -25.6093 -8.40519 -2.3264
head -8.15668 -4.96954 -1.38499
rclavicle -6.36111e-015 -2.22639e-014
rhumerus 52.0497 2.97852 -24.2258
rradius 28.7742
rwrist -6.03998
rhand -39.644 -5.36186
rfingers 7.12502
rthumb -12.6246 -34.9604
lclavicle -6.36111e-015 -2.22639e-014
lhumerus -11.6295 -34.4363 -270.493
lradius 47.5377
lwrist -329.1
lhand -13.1565 -16.749
lfingers 7.12502
lthumb 12.9424 12.8296
rfemur -77.4275 -22.5866 24.0583
rtibia 71.1855
rfoot -18.9647 -3.10337
rtoes 5.38878
lfemur -71.3159 -7.6514 -31.5199
ltibia 51.436
lfoot -0.0807356 -16.5939
ltoes -13.2238
171
root 19.2194 15.8055 -3.02811 1092.35 -59.2107 20.6687
lowerback 76.208 -0.752376 9.41916
upperback 12.6374 4.36672 2.48846
thorax -6.00108 1.28177 -2.47581
lowerneck -1.47056 -5.51425 6.91009
upperneck -25.595 -8.50177 -2.05253
head -8.06988 -5.00798 -1.22337
rclavicle 4.77083e-014 1.27222e-014
rhumerus 53.3367 3.12612 -23.7673
rradius 28.4761
rwrist -6.33276
rhand -38.9105 -6.00098
rfingers 7.12502
rthumb -11.9174 -35.6418
lclavicle 4.77083e-014 1.27222e-014
lhumerus -11.4226 -34.2449 -270.343
lradius 47.5604
lwrist -329.208
lhand -13.1085 -16.7987
lfingers 7.12502
lthumb 12.9886 12.777
rfemur -77.4084 -22.7664 24.0761
rtibia 71.2475
rfoot -19.1231 -3.18955
rtoes 5.41899
lfemur -71.2818 -7.71203 -31.6134
ltibia 51.444
lfoot -0.0846457 -16.8276
ltoes -13.0236
172
root 19.1946 15.8069 -3.0276 1092.41 -58.9468 20.7172
lowerback 76.0933 -0.628974 9.31463
upperback 12.7683 4.42018 2.62552
thorax -5.88166 1.29896 -2.30388
lowerneck -1.83384 -5.58105 6.37015
upperneck -25.5587 -8.58668 -1.72371
head -7.95701 -5.03856 -1.03433
rclavicle -2.22639e-014 4.77083e-015
rhumerus 54.7065 3.20169 -23.4133
rradius 28.0484
rwrist -6.49909
rhand -38.2332 -6.55892
rfingers 7.12502
rthumb -11.2642 -36.2365
lclavicle -2.22639e-014 4.77083e-015
lhumerus -11.2027 -34.017 -270.199
lradius 47.5991
lwrist -329.294
lhand -13.0769 -16.8421
lfingers 7.12502
lthumb 13.0191 12.7316
rfemur -77.4169 -22.9657 24.0892
rtibia 71.3135
rfoot -19.2588 -3.24935
rtoes 5.43357
lfemur -71.2534 -7.79181 -31.7182
ltibia 51.4471
lfoot -0.0840077 -17.0602
ltoes -12.7722
173
root 19.1697 15.8066 -3.02868 1092.4 -58.7058 20.82
lowerback 76.0163 -0.482006 9.172
upperback 12.8837 4.47519 2.75523
thorax -5.78045 1.3153 -2.12585
lowerneck -2.22523 -5.64818 5.84467
upperneck -25.4532 -8.66468 -1.39437
head -7.81582 -5.06524 -0.851739
rclavicle 6.67916e-014 -2.38542e-014
rhumerus 56.0356 3.32872 -22.9651
rradius 27.654
rwrist -6.89708
rhand -37.6434 -7.03067
rfingers 7.12502
rthumb -10.6953 -36.7384
lclavicle 6.67916e-014 -2.38542e-014
lhumerus -10.9742 -33.7281 -270.061
lradius 47.5857
lwrist -329.386
lhand -13.0001 -16.8919
lfingers 7.12502
lthumb 13.0931 12.6771
rfemur -77.4197 -23.1393 24.0607
rtibia 71.3939
rfoot -19.4166 -3.2891
rtoes 5.63495
lfemur -71.2172 -7.85631 -31.8471
ltibia 51.4559
lfoot -0.133629 -17.2884
ltoes -12.9221
174
root 19.1454 15.8049 -3.02903 1092.45 -58.4228 20.8902
lowerback 75.9068 -0.411206 9.0987
upperback 12.9864 4.49865 2.84575
thorax -5.68708 1.32544 -2.00739
lowerneck -2.59794 -5.72264 5.33841
upperneck -25.3679 -8.74341 -1.0489
head -7.685 -5.09506 -0.667178
rclavicle -2.22639e-014 -2.54444e-014
rhumerus 57.3405 3.47766 -22.471
rradius 27.2735
rwrist -7.49626
rhand -37.0729 -7.52658
rfingers 7.12502
rthumb -10.145 -37.262
lclavicle -2.22639e-014 -2.54444e-014
lhumerus -10.7913 -33.3968 -269.927
lradius 47.577
lwrist -329.53
lhand -12.941 -16.9411
lfingers 7.12502
lthumb 13.1501 12.6243
rfemur -77.4675 -23.3499 24.0761
rtibia 71.4747
rfoot -19.5726 -3.3559
rtoes 5.67466
lfemur -71.2219 -7.92918 -31.9863
ltibia 51.4666
lfoot -0.117933 -17.5429
ltoes -12.7731
175
root 19.1211 15.8032 -3.02959 1092.51 -58.1506 20.9155
lowerback 75.8397 -0.363847 9.05703
upperback 13.0793 4.52002 2.91355
thorax -5.59539 1.33687 -1.92432
lowerneck -2.92614 -5.81658 4.79156
upperneck -25.3195 -8.83173 -0.638947
head -7.56957 -5.13084 -0.453212
rclavicle 1.01778e-013 -1.11319e-014
rhumerus 58.6453 3.6799 -21.8283
rradius 26.9101
rwrist -8.36059
rhand -36.5463 -8.08621
rfingers 7.12502
rthumb -9.63693 -37.8458
lclavicle 1.01778e-013 -1.11319e-014
lhumerus -10.6513 -33.0738 -269.791
lradius 47.5927
lwrist -329.674
lhand -12.9288 -17.0403
lfingers 7.12502
lthumb 13.1618 12.5243
rfemur -77.4908 -23.5603 24.1266
rtibia 71.5701
rfoot -19.7366 -3.4402
rtoes 5.54969
lfemur -71.2045 -8.013 -32.0712
ltibia 51.4916
lfoot -0.128494 -17.755
ltoes -12.5733
176
root 19.0981 15.8023 -3.02974 1092.57 -57.8436 20.945
lowerback 75.7776 -0.36411 9.05933
upperback 13.1677 4.52641 2.9774
thorax -5.50354 1.34395 -1.85572
lowerneck -3.29084 -5.91264 4.21757
upperneck -25.2129 -8.91628 -0.216293
head -7.42561 -5.162 -0.235435
rclavicle -5.725e-014 -4.45278e-014
rhumerus 59.9347 3.9247 -20.9445
rradius 26.5729
rwrist -9.5251
rhand -36.0396 -8.81653
rfingers 7.12502
rthumb -9.14804 -38.5981
lclavicle -5.725e-014 -4.45278e-014
lhumerus -10.4889 -32.6975 -269.656
lradius 47.5965
lwrist -329.838
lhand -12.8364 -17.085
lfingers 7.12502
lthumb 13.2509 12.4738
rfemur -77.5009 -23.7998 24.1595
rtibia 71.6559
rfoot -19.9182 -3.49986
rtoes 5.50904
lfemur -71.1786 -8.11544 -32.1706
ltibia 51.5156
lfoot -0.12727 -18.0036
ltoes -12.3297
177
root 19.0764 15.7995 -3.02952 1092.6 -57.5702 21.0095
lowerback 75.7594 -0.375295 9.05049
upperback 13.2094 4.51711 2.98679
thorax -5.45835 1.34798 -1.83841
lowerneck -3.59632 -6.01098 3.68584
upperneck -25.1291 -8.99163 0.222082
head -7.30013 -5.19201 -0.0186067
rclavicle -6.36111e-014 -5.08889e-014
rhumerus 61.1591 4.28386 -19.781
rradius 26.3455
rwrist -11.0707
rhand -35.6612 -9.7185
rfingers 7.12502
rthumb -8.78284 -39.5157
lclavicle -6.36111e-014 -5.08889e-014
lhumerus -10.4443 -32.3526 -269.535
lradius 47.6646
lwrist -330.007
lhand -12.7886 -17.1309
lfingers 7.12502
lthumb 13.297 12.4249
rfemur -77.5525 -24.0522 24.198
rtibia 71.7591
rfoot -20.0698 -3.51475
rtoes 5.54531
lfemur -71.1672 -8.2187 -32.2788
ltibia 51.553
lfoot -0.139654 -18.1994
ltoes -12.1523
178
root 19.0547 15.7975 -3.03065 1092.64 -57.2894 21.0554
lowerback 75.7598 -0.363299 9.03697
upperback 13.2508 4.53771 3.0532
thorax -5.41681 1.35639 -1.76485
lowerneck -3.91972 -6.12414 3.03708
upperneck -25.004 -9.08157 0.691639
head -7.15004 -5.22049 0.224359
rclavicle 4.45278e-014 5.88403e-014
rhumerus 62.6872 4.25365 -19.814
rradius 25.3616
rwrist -11.3605
rhand -35.1303 -10.2651
rfingers 7.12502
rthumb -8.27048 -40.0832
lclavicle 4.45278e-014 5.88403e-014
lhumerus -10.4038 -31.973 -269.331
lradius 47.7372
lwrist -330.173
lhand -12.7527 -17.1623
lfingers 7.12502
lthumb 13.3316 12.3913
rfemur -77.578 -24.2684 24.2314
rtibia 71.8511
rfoot -20.2224 -3.5968
rtoes 5.6428
lfemur -71.1545 -8.30975 -32.3703
ltibia 51.5861
lfoot -0.122843 -18.4146
ltoes -11.9197
